<svg width="45" height="45" viewBox="0 0 45 45" fill="none" xmlns="http://www.w3.org/2000/svg">
<path d="M44.0765 22.4982C44.0765 34.4139 34.4169 44.0735 22.5011 44.0735C10.5854 44.0735 0.925781 34.4139 0.925781 22.4982C0.925781 10.5825 10.5854 0.922852 22.5011 0.922852C34.4169 0.922852 44.0765 10.5825 44.0765 22.4982Z" fill="#3300CC"/>
<path fill-rule="evenodd" clip-rule="evenodd" d="M22.5 1.84931C11.0949 1.84931 1.84931 11.0949 1.84931 22.5C1.84931 33.9051 11.0949 43.1507 22.5 43.1507C33.9051 43.1507 43.1507 33.9051 43.1507 22.5C43.1507 11.0949 33.9051 1.84931 22.5 1.84931ZM0 22.5C0 10.0736 10.0736 0 22.5 0C34.9264 0 45 10.0736 45 22.5C45 34.9264 34.9264 45 22.5 45C10.0736 45 0 34.9264 0 22.5Z" fill="white"/>
<g clip-path="url(#clip0_712_3119)">
<path d="M13.4275 28.9242L14.5257 35.6522L20.9014 33.2393L32.4407 13.2526L24.9668 8.9375L13.4275 28.9242ZM25.6185 11.2635L30.1065 13.8547L27.5737 18.2415L23.0858 15.6504L25.6185 11.2635ZM22.2415 17.1127L26.7295 19.7038L19.7054 31.8699L15.8819 33.3172L15.2235 29.2823L22.251 17.1103L22.2415 17.1127Z" fill="white"/>
</g>
<defs>
<clipPath id="clip0_712_3119">
<rect width="8.63014" height="28.3562" fill="white" transform="translate(24.9668 8.9375) rotate(30)"/>
</clipPath>
</defs>
</svg>
